<svg width="260" height="260" viewBox="0 0 260 260" fill="none" xmlns="http://www.w3.org/2000/svg">
<path fill-rule="evenodd" clip-rule="evenodd" d="M36.9003 26.2516L33.8069 26.2658L32.2736 28.8644L6.54529 72.4681L5 75.087L6.57842 77.7019L32.7559 121.068L34.3344 123.683L37.4519 123.669L44.2936 123.638L40.1276 130.698L38.5823 133.317L40.1607 135.932L66.3382 179.298L67.9166 181.913L71.0342 181.899L77.2885 181.87L73.2084 188.785L71.6631 191.404L73.2415 194.019L99.419 237.385L100.997 240L104.115 239.986L156.021 239.748L159.114 239.734L160.647 237.136L186.376 193.532L187.921 190.913L186.343 188.298L182.357 181.695L189.769 181.661L192.863 181.647L194.396 179.049L220.124 135.445L221.669 132.826L220.091 130.211L216.018 123.464L223.1 123.431L226.193 123.417L227.726 120.819L253.455 77.215L255 74.596L253.422 71.9812L227.244 28.6149L225.666 26L222.548 26.0143L170.642 26.2516L167.549 26.2658L166.016 28.8644L163.322 33.4303L160.415 28.6149L158.836 26L155.719 26.0143L103.813 26.2516L100.72 26.2658L99.1862 28.8644L96.4509 33.5001L93.502 28.6149L91.9236 26L88.806 26.0143L36.9003 26.2516ZM176.068 171.276L186.573 171.228L209.223 132.842L203.596 123.521L171.194 123.669L168.076 123.683L166.498 121.068L163.591 116.253L160.897 120.819L159.364 123.417L156.27 123.431L149.189 123.464L153.262 130.211L154.84 132.826L153.295 135.445L149.215 142.36L155.469 142.331L158.587 142.317L160.165 144.932L176.068 171.276ZM143.034 152.836L152.454 152.793L163.646 171.333L140.878 171.437L136.418 164.048L143.034 152.836ZM136.744 142.417L142.394 132.842L136.767 123.521L123.593 123.581L117.858 133.301L123.397 142.478L136.744 142.417ZM129.687 152.897L130.563 152.893L130.129 153.629L129.687 152.897ZM110.976 142.535L106.99 135.932L105.411 133.317L106.957 130.698L111.123 123.638L104.365 123.669L101.247 123.683L99.6686 121.068L96.7197 116.183L93.9844 120.819L92.4511 123.417L89.3577 123.431L56.7641 123.581L51.0287 133.301L74.0494 171.437L83.4697 171.394L98.9367 145.181L100.47 142.583L103.563 142.569L110.976 142.535ZM95.9402 171.337L106.759 153.002L117.265 152.953L123.971 164.064L119.744 171.228L95.9402 171.337ZM89.7589 181.813L122.94 181.661L126.033 181.647L127.567 179.049L130.261 174.483L133.167 179.298L134.746 181.913L137.863 181.899L169.935 181.752L175.475 190.929L152.825 229.315L107.13 229.524L84.1095 191.388L89.7589 181.813ZM219.904 112.998L209.729 113.045L193.913 86.8448L192.335 84.23L189.217 84.2442L182.459 84.2751L186.625 77.215L188.171 74.596L186.592 71.9812L169.611 43.8492L173.838 36.6846L219.533 36.4756L242.554 74.6123L219.904 112.998ZM186.202 94.7056L176.278 94.751L169.748 105.818L174.209 113.207L197.307 113.102L186.202 94.7056ZM175.724 74.6123L169.989 84.3322L156.815 84.3924L151.188 75.0708L163.453 54.2842L175.724 74.6123ZM163.808 94.808L163.104 94.8113L163.459 95.3988L163.808 94.808ZM140.32 77.7019L144.393 84.4492L137.312 84.4816L134.218 84.4958L132.685 87.0944L129.991 91.6601L127.084 86.8448L125.506 84.23L122.388 84.2442L115.547 84.2755L119.713 77.215L121.258 74.596L119.68 71.9812L102.74 43.9189L107.009 36.6846L152.704 36.4756L157.164 43.8654L140.287 72.4681L138.742 75.087L140.32 77.7019ZM140.507 94.9146L136.28 102.079L142.9 113.045L153.075 112.998L157.302 105.834L150.683 94.8681L140.507 94.9146ZM119.373 94.7056L123.834 102.095L117.304 113.162L107.38 113.207L102.877 105.748L109.365 94.7514L119.373 94.7056ZM130.123 112.514L129.774 113.105L130.478 113.102L130.123 112.514ZM103.076 84.3326L108.812 74.6123L96.5829 54.354L84.359 75.0708L89.9859 84.3924L103.076 84.3326ZM96.2751 94.8113L96.8949 94.8084L96.5877 95.3291L96.2751 94.8113ZM77.564 84.4492L73.4911 77.7019L71.9127 75.087L73.458 72.4681L90.2938 43.9352L85.7909 36.4756L40.0961 36.6846L17.4464 75.0708L40.4671 113.207L50.4749 113.162L65.8559 87.0944L67.3892 84.4958L70.4826 84.4816L77.564 84.4492ZM62.9454 113.105L73.6784 94.9146L83.8532 94.8681L90.4305 105.764L86.1619 112.998L62.9454 113.105Z" fill="#F6F6F6"/>
</svg>
