<svg width="465" height="505" viewBox="0 0 465 505" fill="none" xmlns="http://www.w3.org/2000/svg">
    <path fill-rule="evenodd" clip-rule="evenodd"
        d="M52.0541 0.476894L157.071 0L210.058 87.1618L158.004 174.762L52.9864 175.239L0 88.0771L52.0541 0.476894ZM11.8802 88.0618L58.8401 165.31L152.001 164.887L198.178 87.1772L151.218 9.92879L58.0572 10.3518L11.8802 88.0618Z"
        fill="white" />
    <path fill-rule="evenodd" clip-rule="evenodd"
        d="M180.037 0.476894L285.054 0L338.041 87.1618L285.987 174.762L180.969 175.239L127.983 88.0771L180.037 0.476894ZM139.863 88.0618L186.823 165.31L279.984 164.887L326.161 87.1772L279.201 9.92879L186.04 10.3518L139.863 88.0618Z"
        fill="white" />
    <path fill-rule="evenodd" clip-rule="evenodd"
        d="M306.996 0.476894L412.014 0L465 87.1618L412.946 174.762L307.929 175.239L254.942 88.0771L306.996 0.476894ZM266.822 88.0618L313.782 165.31L406.943 164.887L453.12 87.1772L406.16 9.92879L312.999 10.3518L266.822 88.0618Z"
        fill="white" />
    <path fill-rule="evenodd" clip-rule="evenodd"
        d="M115.534 110.857L220.551 110.381L273.537 197.542L221.483 285.143L116.466 285.619L63.4796 198.458L115.534 110.857ZM75.3598 198.442L122.32 275.691L215.48 275.268L261.657 197.558L214.697 120.309L121.537 120.732L75.3598 198.442Z"
        fill="white" />
    <path fill-rule="evenodd" clip-rule="evenodd"
        d="M243.517 110.857L348.534 110.381L401.52 197.542L349.466 285.143L244.449 285.619L191.463 198.458L243.517 110.857ZM203.343 198.442L250.303 275.691L343.463 275.268L389.64 197.558L342.68 120.309L249.52 120.732L203.343 198.442Z"
        fill="white" />
    <path fill-rule="evenodd" clip-rule="evenodd"
        d="M179.013 221.238L284.031 220.761L337.017 307.923L284.963 395.523L179.946 396L126.959 308.838L179.013 221.238ZM138.839 308.823L185.799 386.071L278.96 385.648L325.137 307.938L278.177 230.69L185.016 231.113L138.839 308.823Z"
        fill="white" />
</svg>