<svg width="1608" height="1347" viewBox="800 700 800 700" fill="none" xmlns="http://www.w3.org/2000/svg">
<mask id="path-1-inside-1_44_2" fill="white">
<path fill-rule="evenodd" clip-rule="evenodd" d="M1379.81 746.134C1379.22 746.134 1378.68 746.45 1378.38 746.963L1038.57 1338.56C1035.9 1343.22 1030.94 1346.09 1025.56 1346.09L584.331 1346.09C578.977 1346.09 574.029 1343.24 571.347 1338.6L228.866 746.634C228.687 746.323 228.356 746.132 227.997 746.132C227.648 746.132 227.325 745.951 227.142 745.654L2.98533 381.199C0.0210955 376.38 0.021096 370.302 2.98545 365.483L223.043 7.69204C225.773 3.25393 230.61 0.550313 235.82 0.550314L257.771 0.550438L686.003 0.550597L922.17 0.551107L1372.35 0.551634C1377.56 0.551635 1382.4 3.25537 1385.13 7.69336L1605.19 365.485C1608.15 370.304 1608.15 376.382 1605.19 381.201L1381.22 745.348C1380.92 745.836 1380.39 746.134 1379.81 746.134Z"/>
</mask>
<path fill-rule="evenodd" clip-rule="evenodd" d="M1379.81 746.134C1379.22 746.134 1378.68 746.45 1378.38 746.963L1038.57 1338.56C1035.9 1343.22 1030.94 1346.09 1025.56 1346.09L584.331 1346.09C578.977 1346.09 574.029 1343.24 571.347 1338.6L228.866 746.634C228.687 746.323 228.356 746.132 227.997 746.132C227.648 746.132 227.325 745.951 227.142 745.654L2.98533 381.199C0.0210955 376.38 0.021096 370.302 2.98545 365.483L223.043 7.69204C225.773 3.25393 230.61 0.550313 235.82 0.550314L257.771 0.550438L686.003 0.550597L922.17 0.551107L1372.35 0.551634C1377.56 0.551635 1382.4 3.25537 1385.13 7.69336L1605.19 365.485C1608.15 370.304 1608.15 376.382 1605.19 381.201L1381.22 745.348C1380.92 745.836 1380.39 746.134 1379.81 746.134Z" fill="#00378B"/>
<path d="M257.771 0.550514V3.55051V0.550514ZM686.004 0.550673V-2.44933V0.550673ZM922.17 0.551183V3.55118V0.551183ZM1385.13 7.69338L1387.69 6.12172L1385.13 7.69338ZM223.044 7.692L225.599 9.26367L223.044 7.692ZM235.82 0.550335L235.82 3.55034L235.82 0.550335ZM2.98542 365.483L0.430065 363.911L2.98542 365.483ZM227.142 745.654L224.586 747.226L227.142 745.654ZM228.866 746.634L231.463 745.131L228.866 746.634ZM584.331 1346.09V1349.09V1346.09ZM571.347 1338.6L568.751 1340.11L571.347 1338.6ZM1381.22 745.348L1383.78 746.919L1381.22 745.348ZM1038.57 1338.56L1041.17 1340.06L1038.57 1338.56ZM1025.56 1346.09V1349.09V1346.09ZM1605.19 365.485L1602.63 367.056L1605.19 365.485ZM1605.19 381.201L1607.74 382.773L1605.19 381.201ZM1378.38 746.963L1380.98 748.457L1378.38 746.963ZM1375.78 745.468L1035.97 1337.07L1041.17 1340.06L1380.98 748.457L1375.78 745.468ZM1025.56 1343.09L584.331 1343.09V1349.09L1025.56 1349.09V1343.09ZM573.944 1337.1L231.463 745.131L226.27 748.136L568.751 1340.11L573.944 1337.1ZM0.430043 382.771L224.586 747.226L229.697 744.082L5.54077 379.628L0.430043 382.771ZM220.488 6.12034L0.430065 363.911L5.54078 367.054L225.599 9.26367L220.488 6.12034ZM257.771 -2.44949L235.82 -2.44966L235.82 3.55034L257.771 3.55051L257.771 -2.44949ZM686.004 -2.44933L257.771 -2.44949V3.55051L686.004 3.55067V-2.44933ZM922.17 -2.44882L686.004 -2.44933V3.55067L922.17 3.55118V-2.44882ZM1372.35 -2.4483L922.17 -2.44882V3.55118L1372.35 3.5517V-2.4483ZM1607.74 363.913L1387.69 6.12172L1382.57 9.26505L1602.63 367.056L1607.74 363.913ZM1383.78 746.919L1607.74 382.773L1602.63 379.63L1378.67 743.776L1383.78 746.919ZM1372.35 3.5517C1376.52 3.55171 1380.39 5.71465 1382.57 9.26505L1387.69 6.12172C1384.41 0.796124 1378.61 -2.44829 1372.35 -2.4483V3.5517ZM225.599 9.26367C227.783 5.71324 231.652 3.5503 235.82 3.55034L235.82 -2.44966C229.568 -2.44972 223.764 0.794699 220.488 6.12034L225.599 9.26367ZM5.54077 379.628C3.16936 375.772 3.16937 370.91 5.54078 367.054L0.430065 363.911C-3.12705 369.695 -3.12707 376.988 0.430043 382.771L5.54077 379.628ZM227.997 743.132C228.69 743.132 229.334 743.492 229.697 744.082L224.586 747.226C225.315 748.411 226.606 749.132 227.997 749.132V743.132ZM231.463 745.131C230.747 743.894 229.426 743.132 227.997 743.132V749.132C227.285 749.132 226.626 748.753 226.27 748.136L231.463 745.131ZM584.331 1343.09C580.048 1343.09 576.089 1340.81 573.944 1337.1L568.751 1340.11C571.968 1345.67 577.906 1349.09 584.331 1349.09V1343.09ZM1378.67 743.776C1378.91 743.377 1379.35 743.134 1379.81 743.134V749.134C1381.43 749.134 1382.93 748.296 1383.78 746.919L1378.67 743.776ZM1035.97 1337.07C1033.83 1340.8 1029.86 1343.09 1025.56 1343.09V1349.09C1032.01 1349.09 1037.96 1345.65 1041.17 1340.06L1035.97 1337.07ZM1602.63 367.056C1605 370.912 1605 375.774 1602.63 379.63L1607.74 382.773C1611.3 376.99 1611.3 369.697 1607.74 363.913L1602.63 367.056ZM1380.98 748.457C1380.74 748.876 1380.3 749.134 1379.81 749.134V743.134C1378.15 743.134 1376.61 744.024 1375.78 745.468L1380.98 748.457Z" fill="#1D202D" mask="url(#path-1-inside-1_44_2)"/>
</svg>
