<svg width="100" height="100" viewBox="0 0 100 100" fill="none" xmlns="http://www.w3.org/2000/svg">
<path d="M68.6766 69.5352L59.6275 85.2087L41.5294 85.2087L32.4803 69.5352L41.5294 53.8618L59.6275 53.8618L68.6766 69.5352Z" stroke="#FAFAFA" stroke-width="3"/>
<path d="M57.0705 49.9998L48.0214 65.6732L29.9233 65.6732L20.8743 49.9998L29.9233 34.3263L48.0215 34.3263L57.0705 49.9998Z" stroke="#FAFAFA" stroke-width="3"/>
<path d="M79.4898 49.9998L70.4407 65.6732L52.3426 65.6732L43.2935 49.9998L52.3426 34.3263L70.4407 34.3263L79.4898 49.9998Z" stroke="#FAFAFA" stroke-width="3"/>
<path d="M68.0484 30.4647L58.9993 46.1382L40.9012 46.1382L31.8521 30.4647L40.9012 14.7913L58.9993 14.7913L68.0484 30.4647Z" stroke="#FAFAFA" stroke-width="3"/>
<path d="M91.0096 30.4647L81.9606 46.1382L63.8624 46.1382L54.8134 30.4647L63.8624 14.7913L81.9606 14.7913L91.0096 30.4647Z" stroke="#FAFAFA" stroke-width="3"/>
<path d="M45.1867 30.4647L36.1376 46.1382L18.0395 46.1382L8.99041 30.4647L18.0395 14.7913L36.1376 14.7913L45.1867 30.4647Z" stroke="#FAFAFA" stroke-width="3"/>
</svg>
