<svg width="320" height="568" viewBox="0 0 320 568" fill="none" xmlns="http://www.w3.org/2000/svg">
<rect width="322.411" height="568" fill="#002866"/>
<mask id="path-2-inside-1_49_5" fill="white">
<path fill-rule="evenodd" clip-rule="evenodd" d="M279.488 345.763C279.215 345.763 278.963 345.909 278.827 346.145L124.342 615.099C121.667 619.756 116.706 622.628 111.335 622.628L-82.9473 622.628C-88.3015 622.628 -93.2497 619.774 -95.9309 615.14L-251.643 345.994C-251.726 345.851 -251.879 345.762 -252.045 345.762C-252.206 345.762 -252.355 345.679 -252.44 345.542L-353.279 181.588C-356.243 176.768 -356.243 170.691 -353.279 165.871L-256.696 8.83844C-253.967 4.40046 -249.13 1.69678 -243.919 1.69678L-238.305 1.69684L-40.6874 1.69686L68.297 1.69712L271.529 1.69726C276.739 1.69726 281.576 4.40093 284.306 8.83892L380.888 165.872C383.852 170.691 383.852 176.769 380.888 181.589L280.136 345.4C279.998 345.626 279.752 345.763 279.488 345.763Z"/>
</mask>
<path fill-rule="evenodd" clip-rule="evenodd" d="M279.488 345.763C279.215 345.763 278.963 345.909 278.827 346.145L124.342 615.099C121.667 619.756 116.706 622.628 111.335 622.628L-82.9473 622.628C-88.3015 622.628 -93.2497 619.774 -95.9309 615.14L-251.643 345.994C-251.726 345.851 -251.879 345.762 -252.045 345.762C-252.206 345.762 -252.355 345.679 -252.44 345.542L-353.279 181.588C-356.243 176.768 -356.243 170.691 -353.279 165.871L-256.696 8.83844C-253.967 4.40046 -249.13 1.69678 -243.919 1.69678L-238.305 1.69684L-40.6874 1.69686L68.297 1.69712L271.529 1.69726C276.739 1.69726 281.576 4.40093 284.306 8.83892L380.888 165.872C383.852 170.691 383.852 176.769 380.888 181.589L280.136 345.4C279.998 345.626 279.752 345.763 279.488 345.763Z" fill="#00378B"/>
<path d="M-238.305 1.69683L-238.305 3.69683H-238.305V1.69683ZM-40.6875 1.69685V-0.303152V1.69685ZM68.2969 1.6971V3.6971V1.6971ZM271.529 1.69724V3.69724V1.69724ZM284.306 8.8389L282.602 9.88668L284.306 8.8389ZM-256.696 8.83845L-254.993 9.88623L-256.696 8.83845ZM-243.919 1.69678L-243.919 3.69678L-243.919 1.69678ZM-353.279 181.588L-351.575 180.54L-353.279 181.588ZM-353.279 165.871L-351.575 166.919L-353.279 165.871ZM-252.44 345.542L-250.736 344.494L-252.44 345.542ZM-251.644 345.994L-253.375 346.995L-251.644 345.994ZM-82.9474 622.628V624.628V622.628ZM-95.931 615.14L-97.6622 616.141L-95.931 615.14ZM280.136 345.4L278.433 344.353L280.136 345.4ZM124.342 615.099L126.076 616.095L124.342 615.099ZM111.335 622.628V620.628V622.628ZM380.888 165.872L382.592 164.824L380.888 165.872ZM380.888 181.589L382.592 182.636L380.888 181.589ZM278.827 346.145L280.561 347.141L278.827 346.145ZM277.093 345.149L122.608 614.103L126.076 616.095L280.561 347.141L277.093 345.149ZM111.335 620.628L-82.9474 620.628V624.628L111.335 624.628V620.628ZM-94.1999 614.138L-249.912 344.992L-253.375 346.995L-97.6622 616.141L-94.1999 614.138ZM-354.982 182.636L-254.143 346.589L-250.736 344.494L-351.575 180.54L-354.982 182.636ZM-258.4 7.79067L-354.982 164.823L-351.575 166.919L-254.993 9.88623L-258.4 7.79067ZM-238.305 -0.303169L-243.919 -0.303219L-243.919 3.69678L-238.305 3.69683L-238.305 -0.303169ZM-40.6875 -0.303152L-238.305 -0.303169V3.69683L-40.6875 3.69685V-0.303152ZM68.2969 -0.302898L-40.6875 -0.303152V3.69685L68.2969 3.6971V-0.302898ZM271.529 -0.302763L68.2969 -0.302898V3.6971L271.529 3.69724V-0.302763ZM382.592 164.824L286.009 7.79113L282.602 9.88668L379.185 166.92L382.592 164.824ZM281.84 346.448L382.592 182.636L379.185 180.541L278.433 344.353L281.84 346.448ZM271.529 3.69724C276.044 3.69724 280.237 6.04042 282.602 9.88668L286.009 7.79113C282.916 2.76139 277.434 -0.302759 271.529 -0.302763V3.69724ZM-254.993 9.88623C-252.627 6.03993 -248.435 3.69674 -243.919 3.69678L-243.919 -0.303219C-249.824 -0.303271 -255.306 2.7609 -258.4 7.79067L-254.993 9.88623ZM-351.575 180.54C-354.144 176.363 -354.144 171.096 -351.575 166.919L-354.982 164.823C-358.342 170.286 -358.342 177.173 -354.982 182.636L-351.575 180.54ZM-252.045 343.762C-251.511 343.762 -251.016 344.039 -250.736 344.494L-254.143 346.589C-253.695 347.318 -252.901 347.762 -252.045 347.762V343.762ZM-249.912 344.992C-250.353 344.231 -251.165 343.762 -252.045 343.762V347.762C-252.593 347.762 -253.1 347.47 -253.375 346.995L-249.912 344.992ZM-82.9474 620.628C-87.5877 620.628 -91.8761 618.155 -94.1999 614.138L-97.6622 616.141C-94.6234 621.393 -89.0155 624.628 -82.9474 624.628V620.628ZM278.433 344.353C278.658 343.986 279.057 343.763 279.487 343.763V347.763C280.447 347.763 281.337 347.265 281.84 346.448L278.433 344.353ZM122.608 614.103C120.289 618.139 115.99 620.628 111.335 620.628V624.628C117.422 624.628 123.045 621.374 126.076 616.095L122.608 614.103ZM379.185 166.92C381.754 171.097 381.754 176.364 379.185 180.541L382.592 182.636C385.951 177.174 385.951 170.286 382.592 164.824L379.185 166.92ZM280.561 347.141C280.34 347.526 279.931 347.763 279.487 347.763V343.763C278.499 343.763 277.585 344.292 277.093 345.149L280.561 347.141Z" fill="#161616" fill-opacity="0.6" mask="url(#path-2-inside-1_49_5)"/>
</svg>
