<svg width="1360" height="1024" viewBox="0 0 1360 1024" fill="none" xmlns="http://www.w3.org/2000/svg">
<rect x="84.564" width="1275.44" height="1024" fill="#002866"/>
<mask id="path-2-inside-1_48_3" fill="white">
<path fill-rule="evenodd" clip-rule="evenodd" d="M976.196 745.584C975.604 745.584 975.058 745.9 974.764 746.412L634.953 1338.01C632.277 1342.67 627.316 1345.54 621.946 1345.54L180.712 1345.54C175.358 1345.54 170.41 1342.69 167.728 1338.05L-174.753 746.084C-174.932 745.773 -175.264 745.582 -175.622 745.582C-175.971 745.582 -176.295 745.401 -176.477 745.104L-400.634 380.649C-403.598 375.83 -403.598 369.752 -400.634 364.933L-180.576 7.14199C-177.846 2.70388 -173.009 0.000264379 -167.799 0.000264838L-145.848 0.000388841L282.384 0.000548618L518.551 0.00105769L968.734 0.00158561C973.944 0.00158607 978.781 2.70532 981.511 7.14331L1201.57 364.935C1204.53 369.754 1204.53 375.832 1201.57 380.651L977.602 744.798C977.301 745.286 976.769 745.584 976.196 745.584Z"/>
</mask>
<path fill-rule="evenodd" clip-rule="evenodd" d="M976.196 745.584C975.604 745.584 975.058 745.9 974.764 746.412L634.953 1338.01C632.277 1342.67 627.316 1345.54 621.946 1345.54L180.712 1345.54C175.358 1345.54 170.41 1342.69 167.728 1338.05L-174.753 746.084C-174.932 745.773 -175.264 745.582 -175.622 745.582C-175.971 745.582 -176.295 745.401 -176.477 745.104L-400.634 380.649C-403.598 375.83 -403.598 369.752 -400.634 364.933L-180.576 7.14199C-177.846 2.70388 -173.009 0.000264379 -167.799 0.000264838L-145.848 0.000388841L282.384 0.000548618L518.551 0.00105769L968.734 0.00158561C973.944 0.00158607 978.781 2.70532 981.511 7.14331L1201.57 364.935C1204.53 369.754 1204.53 375.832 1201.57 380.651L977.602 744.798C977.301 745.286 976.769 745.584 976.196 745.584Z" fill="#00378B"/>
<path d="M976.196 745.584L976.196 742.584L976.196 745.584ZM974.764 746.412L977.365 747.907L977.365 747.907L974.764 746.412ZM634.953 1338.01L637.554 1339.51L637.554 1339.51L634.953 1338.01ZM621.946 1345.54L621.946 1348.54L621.946 1345.54ZM180.712 1345.54L180.712 1348.54L180.712 1345.54ZM167.728 1338.05L165.132 1339.56L165.132 1339.56L167.728 1338.05ZM-174.753 746.084L-172.156 744.581L-172.156 744.581L-174.753 746.084ZM-175.622 745.582L-175.622 748.582L-175.622 745.582ZM-176.477 745.104L-173.922 743.532L-173.922 743.532L-176.477 745.104ZM-400.634 380.649L-403.189 382.221L-403.189 382.221L-400.634 380.649ZM-400.634 364.933L-398.078 366.504L-398.078 366.504L-400.634 364.933ZM-180.576 7.14199L-178.02 8.71365L-178.02 8.71364L-180.576 7.14199ZM-167.799 0.000264838L-167.799 -2.99974L-167.799 -2.99974L-167.799 0.000264838ZM-145.848 0.000388841L-145.848 3.00039L-145.848 3.00039L-145.848 0.000388841ZM282.384 0.000548618L282.384 -2.99945L282.384 -2.99945L282.384 0.000548618ZM518.551 0.00105769L518.551 3.00106L518.551 3.00106L518.551 0.00105769ZM968.734 0.00158561L968.734 3.00159L968.734 3.00159L968.734 0.00158561ZM981.511 7.14331L984.066 5.57165L984.066 5.57165L981.511 7.14331ZM1201.57 364.935L1204.12 363.363L1204.12 363.363L1201.57 364.935ZM1201.57 380.651L1204.12 382.223L1204.12 382.223L1201.57 380.651ZM977.602 744.798L980.157 746.369L980.157 746.369L977.602 744.798ZM976.196 742.584C974.53 742.584 972.992 743.474 972.163 744.918L977.365 747.907C977.125 748.326 976.679 748.584 976.196 748.584L976.196 742.584ZM972.163 744.918L632.351 1336.52L637.554 1339.51L977.365 747.907L972.163 744.918ZM632.351 1336.52C630.211 1340.25 626.242 1342.54 621.946 1342.54L621.946 1348.54C628.391 1348.54 634.344 1345.1 637.554 1339.51L632.351 1336.52ZM621.946 1342.54L180.712 1342.54L180.712 1348.54L621.946 1348.54L621.946 1342.54ZM180.712 1342.54C176.429 1342.54 172.47 1340.26 170.325 1336.55L165.132 1339.56C168.349 1345.12 174.287 1348.54 180.712 1348.54L180.712 1342.54ZM170.325 1336.55L-172.156 744.581L-177.349 747.586L165.132 1339.56L170.325 1336.55ZM-172.156 744.581C-172.872 743.344 -174.193 742.582 -175.622 742.582L-175.622 748.582C-176.334 748.582 -176.993 748.202 -177.349 747.586L-172.156 744.581ZM-175.622 742.582C-174.929 742.582 -174.285 742.942 -173.922 743.532L-179.033 746.676C-178.304 747.86 -177.013 748.582 -175.622 748.582L-175.622 742.582ZM-173.922 743.532L-398.078 379.078L-403.189 382.221L-179.033 746.676L-173.922 743.532ZM-398.078 379.078C-400.45 375.222 -400.45 370.36 -398.078 366.504L-403.189 363.361C-406.746 369.144 -406.746 376.438 -403.189 382.221L-398.078 379.078ZM-398.078 366.504L-178.02 8.71365L-183.131 5.57032L-403.189 363.361L-398.078 366.504ZM-178.02 8.71364C-175.837 5.16317 -171.967 3.00026 -167.799 3.00026L-167.799 -2.99974C-174.051 -2.99974 -179.855 0.244587 -183.131 5.57033L-178.02 8.71364ZM-167.799 3.00026L-145.848 3.00039L-145.848 -2.99961L-167.799 -2.99974L-167.799 3.00026ZM-145.848 3.00039L282.384 3.00055L282.384 -2.99945L-145.848 -2.99961L-145.848 3.00039ZM282.384 3.00055L518.551 3.00106L518.551 -2.99894L282.384 -2.99945L282.384 3.00055ZM518.551 3.00106L968.734 3.00159L968.734 -2.99841L518.551 -2.99894L518.551 3.00106ZM968.734 3.00159C972.902 3.00159 976.772 5.16457 978.956 8.71498L984.066 5.57165C980.791 0.246077 974.987 -2.99841 968.734 -2.99841L968.734 3.00159ZM978.956 8.71497L1199.01 366.506L1204.12 363.363L984.066 5.57165L978.956 8.71497ZM1199.01 366.506C1201.39 370.362 1201.39 375.224 1199.01 379.08L1204.12 382.223C1207.68 376.439 1207.68 369.146 1204.12 363.363L1199.01 366.506ZM1199.01 379.08L975.047 743.226L980.157 746.369L1204.12 382.223L1199.01 379.08ZM975.047 743.226C975.292 742.827 975.727 742.584 976.196 742.584L976.196 748.584C977.811 748.584 979.311 747.745 980.157 746.369L975.047 743.226Z" fill="#1D202D" mask="url(#path-2-inside-1_48_3)"/>
</svg>
