<?xml version="1.0" standalone="no"?>
<!DOCTYPE svg PUBLIC "-//W3C//DTD SVG 20010904//EN"
 "http://www.w3.org/TR/2001/REC-SVG-20010904/DTD/svg10.dtd">
<svg version="1.0" xmlns="http://www.w3.org/2000/svg"
 width="144.000000pt" height="144.000000pt" viewBox="0 0 144.000000 144.000000"
 preserveAspectRatio="xMidYMid meet">
<metadata>
Created by potrace 1.14, written by Peter Selinger 2001-2017
</metadata>
<g transform="translate(0.000000,144.000000) scale(0.100000,-0.100000)"
fill="#000000" stroke="none">
<path d="M199 1260 c-19 -17 -149 -237 -149 -252 0 -12 126 -225 148 -251 9
-10 22 -15 29 -13 19 8 25 -11 13 -35 -10 -18 -2 -38 66 -150 64 -106 82 -129
101 -129 26 0 27 -1 12 -34 -10 -21 -3 -38 67 -155 l79 -131 157 0 157 0 79
133 c73 122 78 134 66 154 -19 31 -18 33 14 33 25 0 35 13 104 131 76 128 77
131 63 159 -15 29 -15 29 12 27 25 -2 34 9 106 130 l78 133 -79 132 -80 133
-157 -2 c-133 -1 -158 -4 -169 -18 -11 -15 -13 -15 -28 2 -15 16 -33 18 -169
16 -134 -1 -155 -3 -166 -19 -12 -17 -14 -17 -27 1 -12 16 -29 18 -162 19
-118 1 -151 -2 -165 -14z m295 -62 c13 -18 10 -28 -35 -104 -42 -70 -48 -87
-39 -104 13 -25 6 -39 -18 -36 -12 2 -31 -20 -63 -73 -38 -65 -49 -76 -75 -79
-28 -3 -33 3 -92 102 l-62 105 61 105 62 104 124 0 c112 0 125 -2 137 -20z
m364 1 c14 -22 11 -29 -52 -133 -34 -56 -35 -61 -21 -83 16 -24 16 -25 -16
-27 -11 0 -27 -9 -34 -19 -12 -17 -14 -17 -28 4 -10 13 -22 19 -31 16 -22 -9
-28 7 -15 36 9 21 5 33 -35 98 -74 118 -66 127 104 128 105 0 117 -2 128 -20z
m413 -79 c32 -52 58 -101 58 -108 1 -7 -25 -57 -56 -112 -53 -90 -61 -99 -88
-100 -27 0 -35 8 -79 81 -42 71 -51 80 -72 76 -28 -5 -30 1 -10 29 14 19 11
28 -35 105 -40 68 -48 88 -40 105 8 19 16 21 136 20 l128 -1 58 -95z m-316
-82 c12 -21 13 -32 3 -53 -6 -14 -18 -25 -27 -26 -9 0 -24 -2 -34 -4 -18 -3
-57 30 -57 48 0 5 14 34 31 64 l31 55 20 -29 c10 -15 25 -40 33 -55z m-376 22
c30 -48 30 -52 15 -75 -9 -14 -21 -25 -28 -26 -6 0 -19 -2 -30 -4 -10 -2 -29
8 -42 22 -22 23 -23 29 -11 47 8 12 22 36 31 54 9 17 21 32 25 32 5 0 23 -23
40 -50z m-87 -191 c14 -24 15 -34 5 -49 -10 -16 -23 -20 -74 -20 -35 0 -63 2
-63 5 0 2 12 25 27 50 23 37 33 45 58 45 23 0 34 -7 47 -31z m188 11 c16 -30
-15 -80 -50 -80 -48 0 -64 36 -34 78 20 29 69 30 84 2z m175 -10 c21 -40 6
-70 -36 -70 -24 0 -32 7 -46 35 -20 42 -6 65 38 65 22 0 32 -7 44 -30z m191 3
c50 -74 50 -73 -21 -73 -54 0 -66 3 -75 20 -8 15 -7 27 5 50 21 41 65 42 91 3z
m-467 -129 c6 -1 18 -2 26 -3 14 -1 14 -4 0 -25 -15 -23 -15 -27 0 -50 17 -26
17 -26 -12 -26 -26 0 -35 -9 -76 -79 -42 -70 -51 -80 -74 -78 -23 2 -37 19
-90 106 l-62 104 19 27 c18 25 22 26 110 25 75 -1 93 2 107 17 15 17 17 17 29
0 7 -9 17 -18 23 -18z m447 0 c74 3 90 0 106 -16 10 -10 18 -24 18 -31 0 -7
-27 -58 -59 -113 -53 -90 -63 -101 -88 -102 -26 0 -34 8 -77 79 -38 64 -52 79
-72 79 -27 0 -29 7 -9 34 12 16 12 21 0 40 -20 28 -19 36 6 31 11 -2 27 4 37
15 16 19 16 19 34 1 15 -17 30 -19 104 -17z m-265 -3 c3 -1 11 -12 17 -26 18
-39 -9 -75 -56 -75 -55 0 -76 39 -47 84 15 23 20 24 86 17z m-114 -160 c7 -1
20 -15 28 -31 25 -48 5 -66 -70 -66 -67 1 -69 4 -30 66 16 25 30 37 42 35 10
-2 24 -4 30 -4z m224 -40 c16 -25 29 -48 29 -52 0 -3 -27 -6 -60 -7 -49 0 -62
3 -70 18 -19 35 15 87 57 87 9 0 28 -21 44 -46z m-28 -112 c91 0 96 -1 112
-25 16 -25 15 -28 -32 -110 -78 -137 -62 -126 -202 -128 l-122 -1 -64 105
c-62 103 -63 105 -47 132 16 28 18 28 113 28 76 0 99 3 110 16 12 14 14 14 25
0 9 -13 31 -17 107 -17z"/>
</g>
</svg>
